<svg width="24" height="24" viewBox="0 0 24 24" fill="none" xmlns="http://www.w3.org/2000/svg">
    <path d="M8.928 18.398c-3.598 1.005 2.19 3.082 6.772 1.119-.75-.292-1.29-.628-1.29-.628-2.042.386-2.99.416-4.845.204-1.53-.175-.637-.695-.637-.695zm6.223-1.962c-2.708.522-4.272.505-6.254.3-1.532-.158-.529-.9-.529-.9-3.963 1.315 2.206 2.808 7.745 1.188-.588-.208-.962-.588-.962-.588zM17.273 5.08s-8.012 2-4.185 6.41c1.13 1.3-.296 2.47-.296 2.47s2.866-1.48 1.55-3.334c-1.23-1.728-2.173-2.586 2.931-5.546zm1.875 15.214s.662.546-.729.968c-2.644.8-11.007 1.042-13.33.032-.835-.364.73-.868 1.223-.974.514-.111.807-.09.807-.09-.928-.655-6.002 1.284-2.576 1.84 9.341 1.514 17.028-.682 14.605-1.776zm-3.21-5.687c.449-.307 1.069-.573 1.069-.573s-1.767.316-3.528.464c-2.155.181-4.466.217-5.627.061-2.747-.367 1.506-1.377 1.506-1.377s-1.652-.112-3.683.87c-2.402 1.162 5.942 1.691 10.263.555zm1.051 2.84c-.02.054-.088.115-.088.115 5.864-1.541 3.708-5.434.904-4.448-.245.087-.375.289-.375.289s.156-.063.503-.135c1.417-.295 3.448 1.897-.944 4.178zm-4.955-4.308c-.865-1.955-3.799-3.666.001-6.667C16.773 2.73 14.342.298 14.342.298c.98 3.864-3.46 5.031-5.062 7.437-1.092 1.64.536 3.402 2.754 5.403zm5.114 9.703c-3.598.677-8.035.598-10.667.164 0 0 .54.446 3.31.624 4.213.27 10.687-.15 10.84-2.144 0 0-.295.756-3.483 1.356z" fill="#D3D3D3"/>
</svg>
