<svg width="25" height="25" viewBox="0 0 25 25" fill="none" xmlns="http://www.w3.org/2000/svg">
    <path d="M22.735 1.302c-.35.84-.798 1.635-1.334 2.37A12.544 12.544 0 0 0 12.535 0C5.659 0 0 5.663 0 12.547a12.556 12.556 0 0 0 3.894 9.09l.462.41A12.538 12.538 0 0 0 12.431 25c6.537 0 12.033-5.123 12.499-11.652.342-3.196-.596-7.239-2.195-12.046zM5.675 21.709a1.074 1.074 0 0 1-.834.397c-.589 0-1.07-.485-1.07-1.074 0-.589.484-1.074 1.07-1.074a1.077 1.077 0 0 1 .833 1.751zm17.008-3.756c-3.093 4.124-9.699 2.734-13.935 2.933 0 0-.752.045-1.507.169 0 0 .283-.12.651-.26 2.973-1.036 4.38-1.237 6.186-2.165 3.402-1.731 6.766-5.52 7.466-9.461-1.296 3.791-5.223 7.05-8.8 8.374-2.452.905-6.88 1.784-6.88 1.784l-.18-.095c-3.014-1.467-3.106-8 2.374-10.109 2.4-.924 4.695-.417 7.287-1.035 2.767-.657 5.968-2.734 7.27-5.442 1.458 4.332 3.213 11.115.068 15.307z" fill="#D3D3D3"/>
</svg>
