<svg width="24" height="24" viewBox="0 0 24 24" fill="none" xmlns="http://www.w3.org/2000/svg">
    <path d="m23.527 23.022-.49-.476c-.465-.617-1.063-1.16-1.69-1.61-.501-.358-1.625-.844-1.834-1.426l-.038-.037c.355-.04.77-.168 1.097-.256.55-.147 1.004-.11 1.572-.256.256-.073.544-.146.731-.22v-.146c-.187-.294-.455-.684-.768-.95-.82-.698-1.695-1.395-2.616-1.976-.51-.323-1.133-.532-1.674-.805-.181-.092-.497-.14-.617-.293-.284-.362-.437-.822-.656-1.244-.46-.884-.91-1.85-1.316-2.78-.277-.635-.458-1.26-.804-1.83-1.662-2.731-3.45-4.38-6.219-6-.59-.344-1.3-.48-2.05-.659L4.95 1.986c-.246-.102-.502-.403-.732-.549C3.3.856.946-.404.266 1.254-.164 2.3.907 3.32 1.29 3.85c.269.372.613.789.805 1.207.126.275.148.551.256.842.266.717.497 1.496.842 2.158.173.336.365.688.585.988.135.184.366.265.402.549-.226.316-.239.807-.366 1.207-.571 1.803-.355 4.044.476 5.378.255.41.856 1.289 1.683.952.723-.295.605-1.208.812-2.013.046-.182-.035-.316.152-.439v.037c.192.445.398.884.616 1.317.487.785 1.292 1.605 2.024 2.159.38.287.736.783 1.11.951v-.019h.042c-.095-.187-.244-.219-.366-.338a8.379 8.379 0 0 1-.841-.956c-.667-.905-1.256-1.898-1.793-2.929-.256-.492-.48-1.037-.695-1.538-.083-.193-.082-.486-.256-.586-.237.368-.585.664-.768 1.098-.293.693-.33 1.538-.44 2.414-.064.023-.035.007-.073.037-.51-.123-.688-.648-.878-1.098-.479-1.138-.568-2.97-.146-4.28.109-.34.602-1.407.402-1.72-.095-.312-.41-.493-.585-.732a5.758 5.758 0 0 1-.586-1.024c-.392-.887-.574-1.883-.987-2.78-.198-.43-.531-.863-.805-1.244-.303-.423-.643-.734-.879-1.244-.083-.182-.197-.473-.073-.66.04-.125.095-.177.22-.218.212-.164.803.054 1.024.146.587.243 1.077.468 1.574.798.238.158.48.354.768.541h.33c.514 0 1.091.044 1.572.19.85.259 1.613.664 2.305 1.101 2.109 1.332 3.833 3.23 5.012 5.49.19.364.272.712.44 1.098.336.78.761 1.58 1.097 2.342.335.76.661 1.527 1.134 2.159.249.332 1.21.51 1.646.695.307.13.808.265 1.098.44.554.333 1.09.731 1.61 1.097.26.183 1.058.584 1.097.915-1.286-.036-2.27.084-3.11.439-.238.1-.619.103-.658.402.131.137.152.343.256.512.2.325.54.76.841.988.33.25.671.516 1.025.732.63.383 1.332.603 1.939.987.357.227.742.513 1.09.768.173.127.167.324.542.403v-.036c-.187-.15-.177-.355-.285-.512zM5.534 4.4a2.555 2.555 0 0 0-.659.073V4.5h.037c.128.188.354.437.512.664l.366.77.036-.035c.227-.16.33-.415.33-.805-.091-.095-.105-.215-.183-.329-.105-.151-.307-.237-.44-.365z" fill="#fff"/>
</svg>
