<svg width="24" height="24" viewBox="0 0 24 24" fill="none" xmlns="http://www.w3.org/2000/svg">
    <path fill-rule="evenodd" clip-rule="evenodd" d="M23.11 14.397c-.084-.547-.543-.905-1.078-.93a3.415 3.415 0 0 0-.583.036c-.233.03-.463.082-.695.117-.161.024-.324.035-.485.052l-.003-.021c.3-.566.611-1.126.895-1.7.217-.44.403-.896.595-1.348.318-.75.572-1.523.783-2.308.201-.752.374-1.513.428-2.293.022-.312.037-.624.035-.936-.001-.25-.028-.498-.053-.747a2.552 2.552 0 0 0-.233-.813c-.157-.341-.4-.621-.655-.888-.205-.213-.43-.407-.654-.601a5.463 5.463 0 0 0-1.048-.695 6.033 6.033 0 0 0-1.33-.515c-.28-.072-.566-.125-.849-.181-.102-.02-.204-.064-.306-.064h-1.92c-.07 0-.139.036-.209.044-.46.051-.914.138-1.355.275-.165.05-.316.019-.472.004-.12-.01-.239-.043-.359-.05-.458-.022-.916-.056-1.374-.05a4.932 4.932 0 0 0-1.297.197 4.34 4.34 0 0 0-1.021.41c-.137.08-.245.065-.386.025a24.486 24.486 0 0 0-1.432-.373c-.3-.068-.608-.1-.915-.133C6.84.881 6.545.862 6.25.856a7.891 7.891 0 0 0-.866.02c-.457.04-.908.134-1.342.283-.481.164-.93.41-1.329.725a4.1 4.1 0 0 0-.994 1.162c-.276.473-.466.98-.584 1.512-.063.288-.104.584-.147.877-.014.091.137.182-.05.273v1.274c.187.084.039.17.05.254.025.204.048.41.083.613.055.32.12.64.185.96.092.445.189.89.29 1.333.074.322.159.643.247.962.136.487.269.975.422 1.456.142.448.304.89.465 1.33.224.61.491 1.201.812 1.767.277.49.594.95 1.019 1.327.28.249.592.44.955.536.285.075.575.084.867.024.332-.068.643-.216.904-.433.03-.025.064-.045.1.002.138.174.323.29.516.391.52.272 1.088.353 1.664.386.14.008.28-.012.421-.016a3.2 3.2 0 0 0 .803-.136c.137-.04.27-.09.41-.138.008.15.017.292.022.436l.02.78c.003.12.007.239.018.357.029.305.056.61.093.915.025.21.051.42.1.625.1.413.235.816.405 1.205.163.378.414.711.732.973.416.344.904.49 1.43.518.218.011.443 0 .657-.038.34-.061.678-.14 1.01-.24.673-.203 1.255-.554 1.69-1.12a3.69 3.69 0 0 0 .581-1.06c.108-.319.21-.641.29-.967.064-.258.095-.523.134-.786.026-.174.041-.349.057-.524.027-.285.053-.569.072-.854.014-.198.013-.398.02-.596.003-.06.013-.121.019-.181.005-.056.033-.076.09-.075.2.003.402.009.602 0 .225-.01.451-.02.672-.057.315-.053.627-.12.936-.2.364-.095.698-.266 1.02-.46.374-.227.716-.492.993-.834.24-.299.355-.643.297-1.02zm-.639.184a.736.736 0 0 1-.205.444c-.538.593-1.213.953-1.984 1.13a6.84 6.84 0 0 1-.897.13 5.999 5.999 0 0 1-.77.018c-.19-.007-.377-.05-.57-.078-.019.177-.037.36-.06.543l-.09.703c-.026.222-.048.445-.076.668-.027.216-.061.43-.09.646-.027.201-.046.403-.076.604-.046.308-.09.616-.15.92a3.61 3.61 0 0 1-.363 1.048 2.37 2.37 0 0 1-.927.933c-.41.234-.856.355-1.309.457-.32.072-.651.084-.976.055a2.008 2.008 0 0 1-1.407-.729 2.925 2.925 0 0 1-.666-1.435c-.039-.258-.07-.516-.092-.776a20.214 20.214 0 0 1-.056-.866 46.993 46.993 0 0 1-.037-1.1c-.01-.452-.013-.903-.02-1.354v-.017c-.23.137-.456.288-.695.412-.28.145-.585.231-.9.254a4.81 4.81 0 0 1-.743.016c-.403-.033-.806-.096-1.167-.294-.147-.08-.3-.179-.4-.308-.242-.308-.126-.698.238-.886.252-.13.527-.184.8-.247.238-.054.474-.119.706-.193.229-.075.373-.261.516-.443l.226-.291-.272-.029a2.48 2.48 0 0 1-.773-.208c-.21-.094-.214-.104-.369.064-.258.28-.508.567-.761.851l-.556.63c-.184.208-.355.428-.553.621-.293.287-.646.46-1.068.44a1.397 1.397 0 0 1-.741-.262c-.46-.32-.77-.768-1.052-1.238a10.766 10.766 0 0 1-.876-1.905c-.164-.456-.329-.913-.472-1.375a37.363 37.363 0 0 1-.98-4.007c-.056-.3-.088-.604-.133-.906a6.058 6.058 0 0 1-.05-1.226c.02-.368.072-.735.125-1.1.073-.507.24-.984.48-1.435a3.6 3.6 0 0 1 1.77-1.628 4.68 4.68 0 0 1 1.02-.3c.52-.102 1.044-.098 1.57-.087.229.005.457.047.686.07.494.048.978.152 1.456.28.348.094.69.215 1.034.32.035.01.086.01.114-.01.468-.305.98-.506 1.524-.621.206-.044.42-.063.63-.077.257-.016.516-.031.772-.016.308.017.614.063.92.105.149.02.293.071.442.086.072.006.147-.046.223-.063.384-.089.766-.188 1.154-.258.288-.052.583-.077.877-.093.327-.02.656-.033.983-.017.414.02.826.078 1.23.173.501.117.983.286 1.44.522.343.176.668.38.96.63.192.165.389.328.562.511.213.226.432.453.566.742.1.219.172.445.192.684.025.298.055.596.052.894-.002.285-.041.57-.069.853a11.385 11.385 0 0 1-.374 1.907 21.945 21.945 0 0 1-.486 1.531c-.164.466-.355.922-.547 1.377a19.602 19.602 0 0 1-1.48 2.8c-.065.101-.127.204-.191.306.165.112.352.15.54.171.18.02.362.031.54.018.287-.021.572-.062.857-.102.282-.04.558-.12.848-.099.289.021.496.241.476.512zm-4.127-.629c-.123-.158-.248-.315-.369-.475-.188-.252-.324-.534-.46-.817-.129-.268-.287-.521-.423-.786-.237-.462-.479-.923-.697-1.394-.275-.592-.491-1.205-.56-1.86a2.715 2.715 0 0 1 .02-.83c.09-.44.32-.783.705-1.018.357-.219.756-.289 1.164-.311.253-.014.508-.003.77-.003l-.008-.044c-.164-.342-.317-.69-.495-1.023a6.42 6.42 0 0 0-.935-1.29 6.466 6.466 0 0 0-.871-.8 6.11 6.11 0 0 0-.988-.618 5.803 5.803 0 0 0-1.307-.465 6.427 6.427 0 0 0-1.327-.161 4.778 4.778 0 0 0-1.136.1 3.587 3.587 0 0 0-1.525.737c-.248.208-.47.445-.66.707-.224.308-.405.64-.56.99a6.899 6.899 0 0 0-.457 1.488c-.05.255-.09.512-.129.77-.014.09-.015.181-.023.285.07-.036.12-.064.17-.089l.166-.074c.561-.257 1.143-.422 1.768-.403.265.008.52.06.755.177.453.223.718.603.833 1.083.08.332.134.67.187 1.007.041.264.084.53.088.796.007.388-.012.777-.033 1.165a3.26 3.26 0 0 1-.203.965c-.21.561-.444 1.113-.663 1.671-.072.185-.127.375-.196.578h.277c.033.001.067.002.1.01.25.059.469.173.647.366.239.257.364.558.37.905.004.193-.017.386-.016.578.004.898.011 1.795.019 2.692 0 .147.008.294.019.44.022.307.044.613.074.92.02.216.05.433.084.648.049.305.188.577.346.837.135.223.312.413.544.544.395.222.82.24 1.25.159.29-.056.574-.145.855-.236a1.795 1.795 0 0 0 1.17-1.122c.182-.5.24-1.024.315-1.545.028-.195.053-.39.079-.586.03-.222.06-.445.088-.667l.06-.497c.029-.238.06-.475.087-.713.021-.184.04-.369.058-.553.024-.235.05-.47.071-.707.016-.179.01-.361.041-.537.059-.322.21-.596.496-.773.12-.074.255-.123.387-.186l-.022-.035zm-10.8-1.322a3.286 3.286 0 0 1-.254-1.054c-.024-.342.017-.683.052-1.024.034-.33.063-.661.073-.993.016-.545-.02-1.089-.047-1.633-.016-.324.022-.652.051-.977a8.551 8.551 0 0 1 .505-2.298c.166-.439.357-.866.627-1.25.185-.264.395-.51.596-.768l-.06-.02A10.062 10.062 0 0 0 7.08 2.17c-.325-.033-.65-.053-.975-.072-.1-.006-.201.007-.301.017-.248.023-.499.033-.743.08a3.665 3.665 0 0 0-1.182.427c-.331.194-.61.445-.842.746-.257.332-.43.708-.555 1.109-.147.472-.216.959-.235 1.45-.017.43-.025.863.05 1.291.054.32.091.642.152.96.083.433.172.865.275 1.294.148.614.295 1.229.469 1.835.167.581.355 1.157.56 1.726.166.464.359.92.562 1.37.132.292.293.574.46.848.18.292.383.568.659.78.348.266.617.308.97.015.152-.126.28-.28.412-.428.21-.234.412-.475.62-.71.266-.3.534-.596.801-.894.057-.063.11-.128.166-.192l-.09-.08a3.318 3.318 0 0 1-.769-1.112zm10.067-8.919c.218.254.425.517.62.788.375.527.675 1.096.895 1.704.098.268.176.539.141.832-.024.206-.022.414-.04.621-.015.172-.042.343-.065.514-.033.259-.081.516-.096.776-.014.247 0 .496.016.744.016.251.05.502.073.753.026.284.061.569.07.854.006.234-.015.47-.036.704a2.802 2.802 0 0 1-.202.816c-.075.184-.164.362-.249.546l.034.037.052.04.052-.094c.438-.69.828-1.41 1.166-2.155.217-.48.422-.966.617-1.456.304-.762.545-1.545.732-2.344.083-.359.147-.723.204-1.087.044-.285.081-.573.09-.86a7.594 7.594 0 0 0-.037-.915c-.02-.23-.077-.461-.221-.648-.231-.3-.481-.587-.788-.814-.258-.192-.516-.388-.793-.55a5.09 5.09 0 0 0-1.413-.54 7.113 7.113 0 0 0-1.472-.172c-.291-.006-.584.025-.876.053-.263.024-.526.067-.791.101.285.16.566.303.831.471a6.536 6.536 0 0 1 1.486 1.281zm-7.242 9.885c.18-.576.425-1.126.663-1.68.193-.448.298-.921.333-1.407.018-.24.013-.482 0-.722a8.376 8.376 0 0 0-.073-.798c-.05-.338-.106-.676-.186-1.008-.087-.358-.305-.608-.68-.7a1.71 1.71 0 0 0-.684-.017 4.075 4.075 0 0 0-1.559.6c-.096.06-.15.11-.133.248.036.294.043.592.042.888-.002.42-.02.839-.036 1.258-.005.136-.024.272-.04.408-.022.208-.065.416-.064.624.002.214.024.433.076.64.165.658.514 1.196 1.087 1.576.352.233.742.351 1.17.373.029-.098.055-.19.084-.283zm-.673-5.64c-.075-.16-.032-.29.143-.351.042-.015.086-.03.13-.035.061-.006.123-.002.184-.002.222.001.435.032.618.173.118.09.15.21.073.334a.584.584 0 0 1-.474.28c-.318.026-.541-.123-.674-.4zm8.82-.059c.026-.21.046-.422.072-.633.01-.084-.034-.107-.105-.11-.224-.005-.447-.013-.67-.017a1.819 1.819 0 0 0-.731.131c-.259.107-.456.278-.536.56a1.696 1.696 0 0 0-.055.639c.031.332.106.658.224.97.156.417.32.833.515 1.232.265.54.565 1.063.846 1.595.075.142.139.29.217.456.158-.33.244-.69.253-1.055.008-.301-.016-.605-.034-.907-.01-.184-.037-.368-.055-.553-.025-.257-.063-.514-.069-.771a7.317 7.317 0 0 1 .035-.787c.022-.251.063-.5.093-.75zm-.504-.203a.596.596 0 0 1-.49.397.559.559 0 0 1-.543-.215c-.1-.122-.062-.266.087-.349.172-.095.36-.119.582-.133.06.011.152.02.238.045.125.035.172.13.126.255zm-6.642 7.062c-.122-.1-.285-.106-.402.004-.145.136-.272.293-.4.447-.147.179-.285.364-.475.502-.276.201-.598.284-.922.363-.257.063-.516.12-.774.181l-.003.033c.076.036.15.08.23.105a3.1 3.1 0 0 0 1.21.152c.301-.026.587-.091.858-.22.373-.176.66-.457.905-.782a.401.401 0 0 0 .064-.205c.017-.248-.11-.432-.29-.58zm9.704.098c-.317.034-.634.07-.952.088-.154.01-.31-.02-.464-.033-.26-.02-.513-.078-.733-.217a.388.388 0 0 0-.368-.044c-.192.065-.35.164-.396.373-.032.14-.043.287-.056.432-.002.025.03.072.054.078.149.04.298.086.45.1.187.016.377.011.565.002a5.2 5.2 0 0 0 .607-.057c.472-.08.928-.209 1.333-.476.146-.096.291-.195.436-.293l-.012-.02c-.155.023-.309.05-.464.067z" fill="#D3D3D3"/>
</svg>
