<svg width="24" height="24" viewBox="0 0 24 24" fill="none" xmlns="http://www.w3.org/2000/svg">
    <path d="M21.127 5.688 12.85.887a1.791 1.791 0 0 0-1.73 0l-8.341 4.8c-.538.31-.904.892-.904 1.514v9.59c0 .622.373 1.204.912 1.515l2.199 1.254c1.055.52 1.347.52 1.827.52 1.563 0 2.374-.945 2.374-2.593V8.02c0-.133.084-.332-.047-.332H8.085c-.133 0-.398.199-.398.332v9.467c0 .73-.678 1.457-1.912.84l-2.273-1.315a.251.251 0 0 1-.127-.221V7.2c0-.09.087-.18.167-.227l8.32-4.793a.283.283 0 0 1 .266 0l8.243 4.792c.08.047.067.135.067.228v9.59c0 .091.017.18-.06.224l-8.276 4.796a.243.243 0 0 1-.24 0l-2.123-1.266c-.064-.037-.14-.05-.202-.016-.59.334-.7.379-1.253.57-.136.048-.337.13.077.362l2.775 1.642a1.741 1.741 0 0 0 1.746 0l8.245-4.797c.539-.313.81-.893.81-1.515V7.2c0-.622-.272-1.202-.81-1.513zm-6.553 9.583c-2.199 0-2.683-.607-2.845-1.7-.019-.118-.118-.258-.238-.258h-1.075c-.133 0-.24.16-.24.293 0 1.4.761 3.096 4.398 3.096 2.632 0 4.141-1.023 4.141-2.833 0-1.794-1.212-2.265-3.765-2.603-2.58-.341-2.843-.514-2.843-1.118 0-.499.222-1.163 2.133-1.163 1.707 0 2.336.366 2.595 1.517a.237.237 0 0 0 .233.186h1.079c.066 0 .13-.027.176-.075a.243.243 0 0 0 .063-.183c-.168-1.982-1.484-2.905-4.146-2.905-2.369 0-3.781 1-3.781 2.676 0 1.819 1.405 2.321 3.679 2.546 2.72.267 2.931.664 2.931 1.199 0 .93-.746 1.325-2.495 1.325z" fill="#D3D3D3"/>
</svg>
