<svg width="24" height="24" viewBox="0 0 24 24" fill="none" xmlns="http://www.w3.org/2000/svg">
    <path d="M.375.188v23.437h23.438V.187H.375zm12.397 19.97c-.346.704-1.006 1.165-1.771 1.388-1.176.27-2.3.116-3.137-.386-.56-.343-.997-.872-1.294-1.481l1.785-1.093c.015.006.062.091.125.2.227.382.424.652.81.841.379.13 1.211.213 1.533-.455.196-.339.133-1.43.133-2.637 0-1.896.009-3.785.009-5.66h2.195c0 2.063.012 4.016 0 6.029.005 1.233.112 2.333-.388 3.255zm9.108-.62c-.763 2.61-5.018 2.696-6.718.97-.36-.405-.585-.617-.799-1.086.904-.52.904-.52 1.783-1.028.477.734.919 1.138 1.713 1.303 1.078.131 2.162-.239 1.92-1.383-.25-.935-2.208-1.163-3.54-2.163-1.352-.908-1.668-3.114-.557-4.375.37-.466 1.002-.814 1.664-.981l.692-.09c1.327-.027 2.157.324 2.766 1.004.17.172.308.357.567.759-.707.45-.705.446-1.718 1.102-.216-.466-.575-.759-.955-.886-.59-.178-1.332.016-1.486.638-.053.192-.042.37.043.687.238.545 1.04.781 1.758 1.112 2.068.838 2.766 1.738 2.938 2.809.166.921-.04 1.52-.071 1.608z" fill="#fff"/>
</svg>
