<svg width="24" height="24" viewBox="0 0 24 24" fill="none" xmlns="http://www.w3.org/2000/svg">
    <path d="M22.5 9a.75.75 0 0 1-.75.75h-1.5v1.5a.75.75 0 1 1-1.5 0v-1.5h-1.5a.75.75 0 0 1 0-1.5h1.5v-1.5a.75.75 0 0 1 1.5 0v1.5h1.5a.75.75 0 0 1 .75.75zm-9-3.75h.75V6a.75.75 0 0 0 1.5 0v-.75h.75a.75.75 0 1 0 0-1.5h-.75V3a.75.75 0 1 0-1.5 0v.75h-.75a.75.75 0 0 0 0 1.5zm6.822 9.094a.75.75 0 0 1 .134.75A9 9 0 1 1 8.913 3.544a.75.75 0 0 1 .994.85 8.257 8.257 0 0 0 9.7 9.7.75.75 0 0 1 .715.25zm-1.818 1.395A9.76 9.76 0 0 1 8.25 6c0-.168 0-.337.013-.504a7.5 7.5 0 1 0 10.241 10.24v.003z" fill="#fff"/>
</svg>
