<svg width="24" height="24" viewBox="0 0 24 24" fill="none" xmlns="http://www.w3.org/2000/svg">
    <path d="M4.664 12.54v-1.22h3.031c.589 0 1.063-.093 1.422-.28.365-.194.63-.457.797-.79.172-.333.258-.714.258-1.14 0-.391-.086-.758-.258-1.102a1.95 1.95 0 0 0-.797-.836c-.36-.214-.833-.32-1.422-.32H5.008V17H3.492V5.625h4.203c.86 0 1.586.148 2.18.445.594.297 1.044.706 1.352 1.227.307.52.46 1.12.46 1.797 0 .729-.153 1.351-.46 1.867-.308.516-.758.909-1.352 1.18-.594.265-1.32.398-2.18.398h-3.03zM17.813 17h-1.5V5.625h1.5V17zM21.46 6.852h-8.79V5.625h8.79v1.227z" fill="#fff"/>
</svg>
