<svg width="24" height="24" viewBox="0 0 24 24" fill="none" xmlns="http://www.w3.org/2000/svg">
    <path d="M19.76 3.68 7.55 1.522A1.5 1.5 0 0 0 5.813 2.74l-2.79 15.844a1.5 1.5 0 0 0 1.22 1.737l12.21 2.156a1.502 1.502 0 0 0 1.738-1.218l2.79-15.844a1.5 1.5 0 0 0-1.22-1.736zM16.713 21 4.5 18.843 7.29 3 19.5 5.156 16.712 21zM8.376 5.477a.75.75 0 0 1 .869-.608l7.781 1.374a.75.75 0 1 1-.261 1.477L8.983 6.346a.75.75 0 0 1-.607-.87zm-.52 2.955a.75.75 0 0 1 .87-.609l7.78 1.375a.75.75 0 1 1-.263 1.477l-7.78-1.373a.75.75 0 0 1-.607-.87zm-.52 2.954a.75.75 0 0 1 .87-.605l3.888.683a.75.75 0 1 1-.26 1.478l-3.891-.687a.75.75 0 0 1-.607-.87z" fill="#fff"/>
</svg>
