<svg width="24" height="24" viewBox="0 0 24 24" fill="none" xmlns="http://www.w3.org/2000/svg">
    <path d="M11.25 3.75V3a.75.75 0 1 1 1.5 0v.75a.75.75 0 1 1-1.5 0zM18 12a6 6 0 1 1-6-6 6.006 6.006 0 0 1 6 6zm-1.5 0a4.5 4.5 0 1 0-9 0 4.5 4.5 0 0 0 9 0zM5.47 6.53a.75.75 0 1 0 1.06-1.06l-.75-.75a.75.75 0 1 0-1.06 1.06l.75.75zm0 10.94-.75.75a.75.75 0 1 0 1.06 1.06l.75-.75a.751.751 0 0 0-1.06-1.06zM18 6.75a.75.75 0 0 0 .53-.22l.75-.75a.75.75 0 1 0-1.06-1.06l-.75.75A.75.75 0 0 0 18 6.75zm.53 10.72a.75.75 0 1 0-1.06 1.06l.75.75a.75.75 0 1 0 1.06-1.06l-.75-.75zM3.75 11.25H3a.75.75 0 1 0 0 1.5h.75a.75.75 0 1 0 0-1.5zM12 19.5a.75.75 0 0 0-.75.75V21a.75.75 0 1 0 1.5 0v-.75a.75.75 0 0 0-.75-.75zm9-8.25h-.75a.75.75 0 1 0 0 1.5H21a.75.75 0 1 0 0-1.5z" fill="#fff"/>
</svg>
